<svg width="15" height="15" viewBox="0 0 15 15" fill="none" xmlns="http://www.w3.org/2000/svg">
<path fill-rule="evenodd" clip-rule="evenodd" d="M7.5 0C3.35788 0 0 3.35783 0 7.5C0 11.6421 3.35788 15 7.5 15C11.6422 15 15 11.6421 15 7.5C15 3.35783 11.6422 0 7.5 0ZM7.5 13.5C4.19161 13.5 1.5 10.8084 1.5 7.5C1.5 4.19161 4.19161 1.5 7.5 1.5C10.8084 1.5 13.5 4.19161 13.5 7.5C13.5 10.8084 10.8084 13.5 7.5 13.5ZM8.43914 4.5C8.43914 5.04378 8.04323 5.4375 7.50762 5.4375C6.95035 5.4375 6.56414 5.04378 6.56414 4.4896C6.56414 3.95696 6.9608 3.5625 7.50762 3.5625C8.04323 3.5625 8.43914 3.95696 8.43914 4.5ZM6.75164 6.75H8.25164V11.25H6.75164V6.75Z" fill="white"/>
</svg>
