<svg width="15" height="12" viewBox="0 0 15 12" fill="none" xmlns="http://www.w3.org/2000/svg">
<path d="M13.5938 0H1.40625C0.62959 0 0 0.62959 0 1.40625V9.84375C0 10.6204 0.62959 11.25 1.40625 11.25H13.5938C14.3704 11.25 15 10.6204 15 9.84375V1.40625C15 0.62959 14.3704 0 13.5938 0ZM13.5938 1.40625V2.60171C12.9369 3.13664 11.8896 3.96844 9.65077 5.72153C9.15738 6.10963 8.18004 7.042 7.5 7.03113C6.82008 7.04212 5.84241 6.10948 5.34923 5.72153C3.11074 3.9687 2.06323 3.13673 1.40625 2.60171V1.40625H13.5938ZM1.40625 9.84375V4.40619C2.07756 4.94089 3.02956 5.69121 4.48061 6.82746C5.12095 7.33151 6.24234 8.44424 7.5 8.43747C8.75147 8.44424 9.85866 7.34766 10.5191 6.8277C11.9701 5.69147 12.9224 4.94095 13.5938 4.40622V9.84375H1.40625Z" fill="white"/>
</svg>
