<svg width="12" height="13" viewBox="0 0 12 13" fill="none" xmlns="http://www.w3.org/2000/svg">
<path d="M1.54014 11.2286L0.565674 0H11.277L10.3013 11.2268L5.91485 12.4757L1.54014 11.2286Z" fill="#1572B6"/>
<path d="M5.92136 11.5213L9.46607 10.5121L10.3 0.918304H5.92136V11.5213Z" fill="#33A9DC"/>
<path d="M5.92136 4.98626H7.69588L7.81823 3.57607H5.92136V2.19884H5.92613H9.28385L9.25174 2.56821L8.92243 6.36349H5.92136V4.98626Z" fill="white"/>
<path d="M5.9296 8.56279L5.92353 8.56457L4.43015 8.1502L4.3347 7.0519H3.60884H2.9884L3.17627 9.2142L5.9231 9.9975L5.9296 9.99571V8.56279Z" fill="#EBEBEB"/>
<path d="M7.58178 6.30515L7.42038 8.14932L5.92484 8.56369V9.99662L8.67383 9.21421L8.69422 8.98163L8.92721 6.30515H7.58178Z" fill="white"/>
<path d="M5.92613 2.19884V3.05431V3.5725V3.57607H2.6912H2.68686L2.65996 3.2664L2.59879 2.56821L2.56668 2.19884H5.92613Z" fill="#EBEBEB"/>
<path d="M5.92141 4.98627V5.84174V6.35993V6.36349H4.45102H4.44668L4.41978 6.05383L4.35904 5.35564L4.32693 4.98627H5.92141Z" fill="#EBEBEB"/>
</svg>
