<svg width="10" height="10" viewBox="0 0 10 10" fill="none" xmlns="http://www.w3.org/2000/svg">
<path d="M4.99996 0.416738C3.79723 0.404517 2.63887 0.870325 1.77943 1.71179C0.919995 2.55326 0.429818 3.70153 0.416626 4.90424C0.42126 5.85473 0.727019 6.77929 1.28999 7.54513C1.85295 8.31098 2.64416 8.87869 3.54996 9.16674C3.77912 9.20841 3.86246 9.07091 3.86246 8.95007C3.86246 8.82924 3.86246 8.56257 3.86246 8.18757C2.58746 8.45841 2.31663 7.58757 2.31663 7.58757C2.23175 7.3142 2.05131 7.08051 1.80829 6.92924C1.39163 6.65424 1.84163 6.65841 1.84163 6.65841C1.98565 6.67766 2.12344 6.72927 2.24467 6.80937C2.3659 6.88947 2.46742 6.99598 2.54163 7.12091C2.67093 7.34512 2.8831 7.50961 3.13246 7.57897C3.38183 7.64832 3.64846 7.617 3.87496 7.49174C3.89825 7.26357 4.00158 7.05101 4.16662 6.89174C3.14996 6.77924 2.08329 6.39591 2.08329 4.67507C2.0742 4.22619 2.24006 3.79137 2.54579 3.46257C2.40655 3.07718 2.42299 2.6527 2.59162 2.27924C2.59162 2.27924 2.97913 2.15841 3.84162 2.73757C4.59241 2.5375 5.3825 2.5375 6.13329 2.73757C7.00829 2.15841 7.38329 2.27924 7.38329 2.27924C7.55192 2.6527 7.56836 3.07718 7.42912 3.46257C7.74196 3.78534 7.91681 4.21724 7.91662 4.66674C7.91662 6.39174 6.84162 6.77091 5.83329 6.88341C5.9437 6.9906 6.02899 7.12093 6.08302 7.26502C6.13705 7.40911 6.15849 7.56338 6.14579 7.71674V8.94591C6.14579 8.94591 6.22912 9.20841 6.45829 9.16257C7.36152 8.87274 8.15006 8.30489 8.71129 7.54013C9.27251 6.77537 9.57771 5.85282 9.58329 4.90424C9.5701 3.70153 9.07992 2.55326 8.22048 1.71179C7.36105 0.870325 6.20268 0.404517 4.99996 0.416738Z" fill="white"/>
</svg>
