<svg width="17" height="16" viewBox="0 0 17 16" fill="none" xmlns="http://www.w3.org/2000/svg">
<path d="M6.33333 14.5109H4.88889C3.2934 14.5109 2 13.2174 2 11.622V7.07745C2 6.06726 2.52766 5.13045 3.39157 4.60687L7.00268 2.41832C7.92302 1.86056 9.07698 1.86056 9.99731 2.41832L13.6084 4.60687C14.4723 5.13045 15 6.06726 15 7.07745V11.622C15 13.2174 13.7066 14.5109 12.1111 14.5109H10.6667M6.33333 14.5109V11.622C6.33333 10.4253 7.30335 9.4553 8.5 9.4553C9.69665 9.4553 10.6667 10.4253 10.6667 11.622V14.5109M6.33333 14.5109H10.6667" stroke="white" stroke-width="2.05054" stroke-linecap="round" stroke-linejoin="round"/>
</svg>
