<svg width="11" height="13" viewBox="0 0 11 13" fill="none" xmlns="http://www.w3.org/2000/svg">
<path d="M1.03897 11.2277L0.0641479 0H10.7755L9.79939 11.2259L5.41333 12.4747L1.03897 11.2277Z" fill="#E44F26"/>
<path d="M5.41983 11.5204L8.96425 10.5112L9.79808 0.918213H5.41983V11.5204Z" fill="#F1662A"/>
<path d="M5.41986 5.08209H3.64548L3.52314 3.67201H5.41986V2.29489H5.41509H2.05765L2.08975 2.66468L2.41903 6.45921H5.41986V5.08209Z" fill="#EBEBEB"/>
<path d="M5.41984 8.65834L5.41377 8.66012L3.92051 8.24623L3.82507 7.14801H3.09927H2.47888L2.66673 9.30969L5.41377 10.0929L5.41984 10.0911V8.65834Z" fill="#EBEBEB"/>
<path d="M5.4151 5.08212V6.45924H7.06627L6.91096 8.24535L5.4151 8.65968V10.0925L8.16431 9.30971L8.18426 9.07714L8.49923 5.45191L8.5322 5.08212H8.17082H5.4151Z" fill="white"/>
<path d="M5.41513 2.29489V3.1503V3.66889V3.67201H8.6498H8.65414L8.68104 3.36281L8.74221 2.66468L8.77431 2.29489H5.41513Z" fill="white"/>
</svg>
