<svg width="8" height="8" viewBox="0 0 8 8" fill="none" xmlns="http://www.w3.org/2000/svg">
<path fill-rule="evenodd" clip-rule="evenodd" d="M2.35089 0.024C2.77756 0.00444363 2.91356 0 4 0C5.08665 0 5.22244 0.00466545 5.64887 0.024C6.07487 0.0433345 6.36578 0.111113 6.62022 0.21C6.88709 0.310476 7.12884 0.467905 7.32865 0.671335C7.53211 0.871127 7.68956 1.11289 7.79 1.37978C7.88887 1.63422 7.95644 1.92511 7.976 2.35089C7.99556 2.77756 8 2.91356 8 4C8 5.08644 7.99535 5.22244 7.976 5.64913C7.95666 6.07487 7.88887 6.36578 7.79 6.62022C7.68778 6.88313 7.55087 7.10644 7.32865 7.32865C7.12887 7.53211 6.88709 7.68956 6.62022 7.79C6.36578 7.88887 6.07487 7.95644 5.64913 7.976C5.22244 7.99556 5.08644 8 4 8C2.91356 8 2.77756 7.99535 2.35089 7.976C1.92511 7.95666 1.63422 7.88887 1.37978 7.79C1.11689 7.68778 0.893556 7.55087 0.671335 7.32865C0.467869 7.12887 0.310429 6.88709 0.21 6.62022C0.111113 6.36578 0.0435564 6.07487 0.024 5.64913C0.00444363 5.22244 0 5.08665 0 4C0 2.91333 0.00466545 2.77756 0.024 2.35111C0.0433345 1.92511 0.111113 1.63422 0.21 1.37978C0.310476 1.11291 0.467905 0.871156 0.671335 0.671335C0.871124 0.467869 1.11289 0.310429 1.37978 0.21C1.63422 0.111113 1.92511 0.0435564 2.35089 0.024ZM5.61644 0.744C5.19465 0.724887 5.068 0.720665 4 0.720665C2.932 0.720665 2.80533 0.724887 2.38356 0.744C1.99356 0.761778 1.78178 0.826887 1.64089 0.881778C1.45422 0.954222 1.32089 1.04089 1.18089 1.18089C1.04111 1.32089 0.954222 1.45422 0.881778 1.64089C0.826887 1.78178 0.761778 1.99356 0.744 2.38356C0.724887 2.80533 0.720665 2.932 0.720665 4C0.720665 5.068 0.724887 5.19465 0.744 5.61644C0.761778 6.00644 0.826887 6.21822 0.881778 6.35913C0.945858 6.53287 1.04807 6.69004 1.18089 6.81913C1.30994 6.95193 1.46713 7.05415 1.64089 7.11822C1.78178 7.17313 1.99356 7.23822 2.38356 7.256C2.80533 7.27513 2.93178 7.27935 4 7.27935C5.06822 7.27935 5.19465 7.27513 5.61644 7.256C6.00644 7.23822 6.21822 7.17313 6.35913 7.11822C6.54578 7.04578 6.67913 6.95913 6.81913 6.81913C6.95193 6.69007 7.05415 6.53287 7.11822 6.35913C7.17313 6.21822 7.23822 6.00644 7.256 5.61644C7.27513 5.19465 7.27935 5.068 7.27935 4C7.27935 2.932 7.27513 2.80533 7.256 2.38356C7.23822 1.99356 7.17313 1.78178 7.11822 1.64089C7.04578 1.45422 6.95913 1.32089 6.81913 1.18089C6.67913 1.04111 6.54578 0.954222 6.35913 0.881778C6.21822 0.826887 6.00644 0.761778 5.61644 0.744ZM3.48927 5.23305C3.6512 5.30015 3.82473 5.33465 4 5.33465C4.354 5.33465 4.69345 5.19404 4.94375 4.94375C5.19407 4.69345 5.33469 4.35396 5.33469 4C5.33469 3.64604 5.19407 3.30655 4.94375 3.05625C4.69345 2.80595 4.354 2.66533 4 2.66533C3.82473 2.66533 3.6512 2.69985 3.48927 2.76693C3.32731 2.834 3.18019 2.93231 3.05626 3.05625C2.93232 3.18018 2.83401 3.32731 2.76694 3.48924C2.69987 3.65116 2.66535 3.82473 2.66535 4C2.66535 4.17527 2.69987 4.34884 2.76694 4.51076C2.83401 4.67269 2.93232 4.81982 3.05626 4.94375C3.18019 5.06767 3.32731 5.166 3.48927 5.23305ZM2.5462 2.54619C2.93177 2.16061 3.45473 1.944 4 1.944C4.54531 1.944 5.06825 2.16061 5.45382 2.54619C5.83938 2.93176 6.056 3.45473 6.056 4C6.056 4.54527 5.83938 5.06822 5.45382 5.45382C5.06825 5.83938 4.54531 6.056 4 6.056C3.45473 6.056 2.93177 5.83938 2.5462 5.45382C2.16063 5.06822 1.94401 4.54527 1.94401 4C1.94401 3.45473 2.16063 2.93176 2.5462 2.54619ZM6.51189 2.25032C6.60302 2.15917 6.65422 2.03556 6.65422 1.90667C6.65422 1.77777 6.60302 1.65415 6.51189 1.56301C6.42073 1.47187 6.29713 1.42067 6.16822 1.42067C6.03935 1.42067 5.91571 1.47187 5.82458 1.56301C5.73342 1.65415 5.68222 1.77777 5.68222 1.90667C5.68222 2.03556 5.73342 2.15917 5.82458 2.25032C5.91571 2.34146 6.03935 2.39267 6.16822 2.39267C6.29713 2.39267 6.42073 2.34146 6.51189 2.25032Z" fill="white"/>
</svg>
