<svg width="12" height="12" viewBox="0 0 12 12" fill="none" xmlns="http://www.w3.org/2000/svg">
<path d="M0.0408936 1C0.0408936 0.447715 0.488609 0 1.04089 0H10.726C11.2783 0 11.726 0.447715 11.726 1V11C11.726 11.5523 11.2783 12 10.726 12H1.04089C0.48861 12 0.0408936 11.5523 0.0408936 11V1Z" fill="#F5DE19"/>
<path d="M7.40955 9.66257C7.66762 9.50822 8.00074 9.62298 8.23733 9.80858C8.26914 9.83354 8.30225 9.85691 8.33655 9.87859C8.52852 9.99991 8.74998 10.0631 8.97538 10.0607C9.43026 10.0607 9.72114 9.82716 9.72114 9.50359C9.72114 9.11787 9.42234 8.97987 8.92154 8.75487L8.64694 8.63402C7.85402 8.2873 7.32819 7.85316 7.32819 6.93516C7.32819 6.08959 7.95418 5.44545 8.93615 5.44545C9.25403 5.42187 9.57163 5.49493 9.84934 5.65552C10.0039 5.74487 10.1422 5.85912 10.2596 5.99309C10.4209 6.17715 10.3437 6.44957 10.1392 6.58387L10.0222 6.66068C9.82519 6.79001 9.55453 6.69091 9.36019 6.55762C9.23431 6.47129 9.08584 6.42628 8.93448 6.42859C8.86844 6.4218 8.80175 6.42921 8.73866 6.45035C8.67557 6.4715 8.61745 6.5059 8.56802 6.55138C8.51859 6.59686 8.47893 6.65242 8.45156 6.71451C8.42419 6.7766 8.40972 6.84387 8.40907 6.91202C8.40907 7.25016 8.61314 7.3873 9.0843 7.59773L9.3589 7.71859C10.292 8.12959 10.8195 8.5483 10.8195 9.48987C10.8195 10.5052 10.0429 11.0614 9 11.0614C8.59365 11.088 8.18849 10.9933 7.83341 10.7886C7.61572 10.6632 7.42255 10.4997 7.26197 10.3067C7.08981 10.0998 7.17854 9.80073 7.40955 9.66257ZM3.51999 9.7787C3.78683 9.61252 4.10102 9.74569 4.35145 9.9357C4.44777 10.0088 4.56463 10.0526 4.71782 10.0526C5.07839 10.0526 5.30625 9.90773 5.30625 9.34416V6.05872C5.30625 5.75552 5.55204 5.50973 5.85524 5.50973C6.15844 5.50973 6.40423 5.75552 6.40423 6.05872V9.35916C6.40423 10.5266 5.73651 11.058 4.76456 11.058C4.42099 11.0773 4.07979 10.9894 3.7858 10.8058C3.62529 10.7056 3.48296 10.5794 3.36379 10.4331C3.19186 10.2219 3.28889 9.92263 3.51999 9.7787Z" fill="black"/>
</svg>
