<svg width="9" height="7" viewBox="0 0 9 7" fill="none" xmlns="http://www.w3.org/2000/svg">
<path d="M6.31192 0C6.14719 0.00827332 5.98245 0.02482 5.82687 0.0744599C5.57977 0.157193 5.34182 0.281293 5.14048 0.463306C5.08255 0.496504 5.03361 0.541051 4.99729 0.593652C4.96097 0.646252 4.9382 0.705561 4.93066 0.767191C4.92311 0.828821 4.93099 0.891195 4.95371 0.949701C4.97643 1.00821 5.01341 1.06135 5.06191 1.10519C5.11041 1.14904 5.16919 1.18247 5.23391 1.203C5.29863 1.22354 5.36763 1.23066 5.4358 1.22384C5.50398 1.21702 5.56958 1.19644 5.62777 1.1636C5.68596 1.13077 5.73523 1.08654 5.77196 1.03417C5.87263 0.943159 5.9916 0.893519 6.11973 0.852152C6.44005 0.752872 6.83358 0.794239 7.08983 1.03417C7.44675 1.35683 7.44675 1.89459 7.08983 2.22552L5.71705 3.46652C5.31436 3.83055 4.9849 3.86364 4.74695 3.85537C4.509 3.8471 4.37172 3.74782 4.37172 3.74782C4.31884 3.72065 4.26056 3.70317 4.2002 3.69637C4.13985 3.68957 4.0786 3.69359 4.01997 3.70818C3.96133 3.72278 3.90644 3.74767 3.85845 3.78145C3.81045 3.81522 3.77028 3.8572 3.74024 3.90501C3.71019 3.95281 3.69086 4.0055 3.68333 4.06006C3.67581 4.11462 3.68025 4.16999 3.6964 4.22299C3.71254 4.276 3.74008 4.32562 3.77744 4.36901C3.8148 4.4124 3.86124 4.44871 3.91412 4.47587C3.91412 4.47587 4.22529 4.65788 4.68288 4.6827C5.14048 4.70752 5.78111 4.55033 6.33938 4.03738L7.71216 2.79638C8.42601 2.15106 8.42601 1.10863 7.71216 0.47158C7.45591 0.239926 7.15389 0.0992799 6.82443 0.0330933C6.65969 0 6.47665 0 6.31192 0.00827332V0ZM4.48154 1.91114C4.02395 1.89459 3.39247 2.03524 2.8525 2.53164L1.47972 3.77264C0.765874 4.41795 0.765874 5.46039 1.47972 6.09744C1.99223 6.56075 2.72438 6.69312 3.36501 6.48629C3.61211 6.40355 3.85006 6.27945 4.0514 6.09744C4.10933 6.06424 4.15827 6.01969 4.19459 5.96709C4.23091 5.91449 4.25368 5.85519 4.26122 5.79356C4.26877 5.73193 4.26089 5.66955 4.23817 5.61104C4.21545 5.55254 4.17847 5.4994 4.12997 5.45555C4.08147 5.41171 4.02269 5.37828 3.95797 5.35774C3.89325 5.3372 3.82425 5.33008 3.75608 5.3369C3.6879 5.34372 3.6223 5.36431 3.56411 5.39714C3.50592 5.42997 3.45665 5.47421 3.41992 5.52658C3.31925 5.61759 3.20028 5.66723 3.07215 5.70859C2.75183 5.80787 2.3583 5.76651 2.10205 5.52658C1.74513 5.20392 1.74513 4.66615 2.10205 4.33522L3.47483 3.09422C3.84091 2.76329 4.16123 2.72192 4.41748 2.7302C4.67373 2.73847 4.84762 2.80466 4.84762 2.80466C4.90124 2.84101 4.96304 2.86627 5.02865 2.87866C5.09426 2.89104 5.16208 2.89025 5.22731 2.87632C5.29254 2.8624 5.35359 2.8357 5.40615 2.7981C5.45871 2.76049 5.50148 2.71292 5.53146 2.65872C5.56143 2.60453 5.57787 2.54504 5.57961 2.48447C5.58136 2.4239 5.56836 2.36373 5.54154 2.3082C5.51472 2.25267 5.47473 2.20314 5.42441 2.16313C5.37408 2.12311 5.31464 2.09357 5.2503 2.0766C5.2503 2.0766 4.93914 1.91114 4.48154 1.89459V1.91114Z" fill="#454545"/>
</svg>
