<svg width="8" height="8" viewBox="0 0 8 8" fill="none" xmlns="http://www.w3.org/2000/svg">
<path d="M7.40744 0H0.590556C0.264556 0 0 0.258333 0 0.576444V7.42278C0 7.74133 0.264556 8 0.590556 8H7.40744C7.73367 8 8 7.74133 8 7.42278V0.576444C8 0.258333 7.73367 0 7.40744 0ZM2.37267 6.81711H1.18556V2.99944H2.37267V6.81711ZM1.77911 2.47744C1.39878 2.47744 1.09133 2.16922 1.09133 1.78922C1.09133 1.40978 1.39878 1.10156 1.77911 1.10156C2.15856 1.10156 2.46678 1.40978 2.46678 1.78922C2.46678 2.16922 2.15856 2.47744 1.77911 2.47744ZM6.81667 6.81711H5.63144V4.96067C5.63144 4.51778 5.62278 3.94833 5.01467 3.94833C4.39711 3.94833 4.303 4.43067 4.303 4.92856V6.81722H3.11689V2.99944H4.25522V3.52078H4.27144C4.42989 3.22078 4.817 2.90422 5.39433 2.90422C6.595 2.90422 6.81678 3.69467 6.81678 4.723L6.81667 6.81711Z" fill="white"/>
</svg>
