<svg width="14" height="14" viewBox="0 0 14 14" fill="none" xmlns="http://www.w3.org/2000/svg">
<path d="M12.0808 11.2525L10.0975 9.275C10.7374 8.45977 11.0846 7.45305 11.0833 6.41667C11.0833 5.49369 10.8096 4.59144 10.2968 3.82401C9.78405 3.05658 9.05522 2.45844 8.20249 2.10523C7.34977 1.75202 6.41146 1.65961 5.50622 1.83967C4.60097 2.01974 3.76945 2.46419 3.11681 3.11684C2.46416 3.76948 2.0197 4.601 1.83964 5.50625C1.65958 6.41149 1.75199 7.3498 2.1052 8.20253C2.45841 9.05525 3.05655 9.78408 3.82398 10.2969C4.59141 10.8096 5.49366 11.0833 6.41664 11.0833C7.45302 11.0846 8.45974 10.7374 9.27497 10.0975L11.2525 12.0808C11.3067 12.1355 11.3712 12.1789 11.4423 12.2085C11.5134 12.2381 11.5896 12.2534 11.6666 12.2534C11.7436 12.2534 11.8199 12.2381 11.891 12.2085C11.9621 12.1789 12.0266 12.1355 12.0808 12.0808C12.1355 12.0266 12.1789 11.9621 12.2085 11.891C12.2381 11.8199 12.2534 11.7437 12.2534 11.6667C12.2534 11.5897 12.2381 11.5134 12.2085 11.4423C12.1789 11.3712 12.1355 11.3067 12.0808 11.2525ZM2.91664 6.41667C2.91664 5.72443 3.12191 5.04775 3.50649 4.47217C3.89108 3.8966 4.43771 3.448 5.07725 3.18309C5.71679 2.91818 6.42052 2.84887 7.09945 2.98392C7.77839 3.11897 8.40203 3.45231 8.89151 3.9418C9.381 4.43128 9.71434 5.05492 9.84939 5.73385C9.98444 6.41279 9.91512 7.11652 9.65022 7.75606C9.38531 8.3956 8.93671 8.94223 8.36114 9.32681C7.78556 9.7114 7.10887 9.91667 6.41664 9.91667C5.48838 9.91667 4.59814 9.54792 3.94176 8.89154C3.28539 8.23517 2.91664 7.34493 2.91664 6.41667Z" fill="#231F20"/>
</svg>
