<svg width="15" height="15" viewBox="0 0 15 15" fill="none" xmlns="http://www.w3.org/2000/svg">
<path d="M4.08963 0.534496C4.37071 -0.17817 5.37931 -0.178163 5.66038 0.534503L6.53138 2.74299C6.61718 2.96058 6.78946 3.13281 7.00703 3.21861L9.21549 4.08963C9.92821 4.37071 9.92821 5.37931 9.21549 5.66038L7.00703 6.53138C6.78946 6.61718 6.61718 6.78946 6.53138 7.00703L5.66038 9.21549C5.37931 9.92821 4.37071 9.92821 4.08963 9.21549L3.21861 7.00703C3.13281 6.78946 2.96058 6.61718 2.74299 6.53138L0.534496 5.66038C-0.17817 5.37931 -0.178163 4.37071 0.534503 4.08963L2.74299 3.21861C2.96058 3.13281 3.13281 2.96058 3.21861 2.74299L4.08963 0.534496Z" fill="white"/>
<path d="M11.1934 8.5437C11.3479 8.15212 11.9022 8.15212 12.0567 8.5437L12.7321 10.2565C12.7793 10.3761 12.8739 10.4707 12.9936 10.5179L14.7064 11.1934C15.0979 11.3479 15.0979 11.9021 14.7064 12.0566L12.9936 12.7321C12.8739 12.7793 12.7793 12.8739 12.7321 12.9935L12.0567 14.7063C11.9022 15.0979 11.3479 15.0979 11.1934 14.7063L10.518 12.9935C10.4708 12.8739 10.3761 12.7793 10.2565 12.7321L8.54374 12.0566C8.15217 11.9021 8.15217 11.3479 8.54374 11.1934L10.2565 10.5179C10.3761 10.4707 10.4708 10.3761 10.518 10.2565L11.1934 8.5437Z" fill="white"/>
</svg>
